<?xml version="1.0" encoding="UTF-8"?>
<svg width="257px" height="80px" viewBox="0 0 257 80" version="1.1" xmlns="http://www.w3.org/2000/svg" xmlns:xlink="http://www.w3.org/1999/xlink">
    <title>Logo Color</title>
    <g id="Page-1" stroke="none" stroke-width="1" fill="none" fill-rule="evenodd">
        <g id="Logo-Color" fill-rule="nonzero">
            <path d="M38.6805882,72.2096471 L38.8876471,71.9631765 L47.3082353,61.5831765 L36.1041176,61.5831765 C22.0558824,61.5831765 10.6264706,50.1537647 10.6264706,36.1049412 C10.6264706,22.0555294 22.0558824,10.6261176 36.1041176,10.6261176 L49.1917647,10.6261176 L57.8994118,0.000235294118 L36.1041176,0.000235294118 C16.1958824,0.000235294118 -7.10542736e-15,16.1967059 -7.10542736e-15,36.1049412 C-7.10542736e-15,56.0131765 16.1958824,72.2096471 36.1041176,72.2096471 L38.6805882,72.2096471 Z" id="Fill-31" fill="#0E39A9"></path>
            <path d="M0.000117647059,36.1047059 C0.000117647059,45.29 3.45305882,53.68 9.12188235,60.0588235 L15.9448235,51.6576471 C12.6148235,47.3511765 10.626,41.9576471 10.626,36.1047059 C10.626,22.0558824 22.056,10.6264706 36.1042353,10.6264706 L49.2701176,10.6264706 L57.8995294,1.10134124e-13 L36.1042353,1.10134124e-13 C16.196,1.10134124e-13 0.000117647059,16.1964706 0.000117647059,36.1047059" id="Fill-33" fill="#1974D2"></path>
            <polygon id="Fill-35" fill="#0E39A9" points="47.3071176 61.5834706 57.933 48.4840588 57.933 30.3946471 35.3588824 30.3946471 26.7506471 41.0211176 47.3071176 41.0211176"></polygon>
            <path d="M243.223353,51.273 C239.263941,51.273 236.498059,53.9200588 236.498059,57.7100588 L236.498059,57.8059412 C236.498059,61.5641765 239.326294,64.2912353 243.223353,64.2912353 C247.193353,64.2912353 250.186882,61.5035882 250.186882,57.8059412 L250.186882,57.7100588 C250.186882,54.0406471 247.193353,51.273 243.223353,51.273 M256.796294,49.3071176 L256.796294,66.5188824 C256.796294,70.8377059 255.672176,74.1524118 253.456294,76.3694706 C251.111,78.713 247.507471,79.9012353 242.744529,79.9012353 C239.439235,79.9012353 236.323353,79.2624118 233.479824,78.0006471 C232.766882,77.6841765 232.227471,77.103 231.959824,76.3647647 C231.692765,75.6294706 231.739824,74.8047647 232.086294,74.1041765 C232.781588,72.7000588 234.445118,72.1194706 235.865118,72.7765294 C238.005118,73.7671176 240.208059,74.2482941 242.600412,74.2482941 C247.532765,74.2482941 250.139824,71.7412353 250.139824,66.9977059 L250.139824,66.3288824 C247.772176,68.9200588 245.060412,70.1347647 241.691588,70.1347647 C233.931588,70.1347647 229.744529,63.8071176 229.744529,57.8535882 L229.744529,57.7577059 C229.744529,49.7494706 235.900412,45.4282941 241.691588,45.4282941 C245.859824,45.4282941 248.438647,47.2777059 250.103941,49.0118235 C250.254529,47.3012353 251.695118,45.9547647 253.444529,45.9547647 C255.292765,45.9547647 256.796294,47.4588824 256.796294,49.3071176 M217.965706,46.0024118 C214.964529,46.0024118 212.511588,47.1624118 210.503353,49.5406471 C210.321,47.8494706 208.885118,46.5288824 207.145706,46.5288824 C205.284529,46.5288824 203.769824,48.0435882 203.769824,49.9053529 L203.769824,69.343 C203.769824,71.2059412 205.284529,72.7200588 207.145706,72.7200588 C209.008059,72.7200588 210.522765,71.2059412 210.522765,69.343 L210.522765,57.9971176 C210.522765,54.4635882 212.579235,52.1812353 215.762765,52.1812353 C218.957471,52.1812353 220.717471,54.2124118 220.717471,57.9006471 L220.717471,69.3671176 C220.717471,71.2165294 222.221588,72.7200588 224.069824,72.7200588 C225.918647,72.7200588 227.422765,71.2165294 227.422765,69.3671176 L227.422765,56.1300588 C227.422765,49.883 223.799235,46.0024118 217.965706,46.0024118 M197.872765,38.2153529 L197.176294,38.2153529 C195.458059,38.2153529 194.059824,39.6124118 194.059824,41.3306471 C194.059824,43.0488824 195.458059,44.4465294 197.176294,44.4465294 L197.872765,44.4465294 C199.590412,44.4465294 200.988647,43.0488824 200.988647,41.3306471 C200.988647,39.6124118 199.590412,38.2153529 197.872765,38.2153529 M197.524529,46.5288824 C195.662176,46.5288824 194.146882,48.0435882 194.146882,49.9053529 L194.146882,69.343 C194.146882,71.2059412 195.662176,72.7200588 197.524529,72.7200588 C199.386882,72.7200588 200.901588,71.2059412 200.901588,69.343 L200.901588,49.9053529 C200.901588,48.0435882 199.386882,46.5288824 197.524529,46.5288824 M181.780412,46.0024118 C178.778059,46.0024118 176.325706,47.1624118 174.316882,49.5406471 C174.135706,47.8494706 172.698647,46.5288824 170.959824,46.5288824 C169.096882,46.5288824 167.582765,48.0435882 167.582765,49.9053529 L167.582765,69.343 C167.582765,71.2059412 169.096882,72.7200588 170.959824,72.7200588 C172.822176,72.7200588 174.336882,71.2059412 174.336882,69.343 L174.336882,57.9971176 C174.336882,54.4635882 176.393941,52.1812353 179.577471,52.1812353 C182.771,52.1812353 184.531588,54.2124118 184.531588,57.9006471 L184.531588,69.3671176 C184.531588,71.2165294 186.035118,72.7200588 187.884529,72.7200588 C189.732176,72.7200588 191.236294,71.2165294 191.236294,69.3671176 L191.236294,56.1300588 C191.236294,49.883 187.613353,46.0024118 181.780412,46.0024118 M135.416882,60.3212353 C131.933941,60.3212353 129.936294,61.6906471 129.936294,64.0782941 L129.936294,64.1735882 C129.936294,66.2224118 131.692176,67.5459412 134.411588,67.5459412 C138.058059,67.5459412 140.704529,65.4624118 140.704529,62.593 L140.704529,61.1871176 C139.539235,60.7694706 137.745706,60.3212353 135.416882,60.3212353 M144.265706,48.5824118 C146.158647,50.4288824 147.123353,53.1641765 147.123353,56.7047647 L147.123353,68.8647647 C147.123353,70.6741765 145.651588,72.1459412 143.842765,72.1459412 C142.288647,72.1459412 140.983353,71.0594706 140.646294,69.6065294 C138.603941,71.6165294 135.907471,72.6718235 132.783353,72.6718235 C128.228647,72.6718235 123.326294,70.0877059 123.326294,64.4124118 L123.326294,64.3171176 C123.326294,58.9335882 127.416294,55.7212353 134.268059,55.7212353 C137.033353,55.7212353 139.024529,56.1471176 140.609235,56.6141765 L140.609235,56.6088824 C140.609235,52.4359412 137.446882,51.5600588 134.793941,51.5600588 C133.073353,51.5600588 131.515706,51.7971176 129.892176,52.3071176 C128.406882,52.7753529 126.836882,51.9753529 126.319824,50.4918235 C126.065118,49.7571176 126.112176,48.9671176 126.452176,48.2677059 C126.789235,47.5759412 127.372765,47.0577059 128.096882,46.8094706 C130.486294,45.9871176 132.788059,45.6200588 135.560412,45.6200588 C139.366882,45.6200588 142.378059,46.6441765 144.265706,48.5824118 M103.477471,56.8218235 L115.396294,56.8218235 C114.953941,53.9588824 113.206882,51.0812353 109.501588,51.0812353 C106.449235,51.0812353 104.127471,53.3153529 103.477471,56.8218235 M122.117471,59.4812353 C122.115118,60.6382941 121.167471,61.5659412 120.005118,61.5659412 L103.535706,61.5659412 C104.256294,64.9747647 106.793353,67.0682941 110.266882,67.0682941 C112.253353,67.0682941 113.845118,66.5424118 115.427471,65.3624118 C116.476882,64.5782941 117.956294,64.6465294 118.945118,65.5241765 C119.563941,66.073 119.908647,66.8635882 119.889235,67.6924118 C119.870412,68.5206471 119.490412,69.2941765 118.846882,69.8147647 C116.462765,71.743 113.543941,72.7200588 110.171588,72.7200588 C102.389235,72.7200588 96.7404118,67.0118235 96.7404118,59.1459412 L96.7404118,58.6012353 C96.7404118,55.0724118 98.1733529,51.6235882 100.672176,49.1388824 C103.095706,46.7271176 106.274529,45.4077059 109.635706,45.4278248 C118.258059,45.4759412 122.117471,52.5206471 122.117471,59.4812353 M94.211,65.8718235 L81.0451176,65.8718235 C80.3198235,65.8718235 79.731,65.2824118 79.731,64.5577059 L79.731,40.8582941 C79.731,39.1282941 78.3233529,37.7212353 76.5933529,37.7212353 L76.0662941,37.7212353 C74.3362941,37.7212353 72.9292353,39.1282941 72.9292353,40.8582941 L72.9292353,70.1153529 C72.9292353,71.2353529 73.8398235,72.1459412 74.9592353,72.1459412 L94.211,72.1459412 C95.941,72.1459412 97.3480588,70.7382941 97.3480588,69.0088824 C97.3480588,67.2794706 95.941,65.8718235 94.211,65.8718235 M165.621,49.6241765 C165.621,51.2012353 164.608059,52.5618235 163.101,53.0106471 C160.959824,53.6471176 158.244529,54.9088824 157.468647,57.3047647 C156.935118,58.6735882 156.668059,60.273 156.668059,62.083 L156.668059,69.3435882 C156.668059,71.2059412 155.153941,72.7200588 153.291588,72.7200588 C151.429824,72.7200588 149.914529,71.2059412 149.914529,69.3435882 L149.914529,49.3488824 C149.914529,47.4865294 151.429824,45.9724118 153.291588,45.9724118 C155.153941,45.9724118 156.668059,47.4865294 156.668059,49.3488824 L156.668059,50.193 C157.681,48.4906471 158.981,47.2294706 160.548647,46.4335882 C161.619824,45.8900588 162.876294,45.9459412 163.912765,46.5824118 C164.982176,47.2388824 165.621,48.3759412 165.621,49.6241765" id="Fill-37" fill="#0E39A9"></path>
            <path d="M187.947647,29.3000588 C187.669412,29.3312353 187.385294,29.3471176 187.092941,29.3471176 C185.257059,29.3471176 184.438235,28.5135882 184.438235,26.6435882 L184.438235,14.7006471 L188.29,14.7006471 C189.914706,14.7006471 191.236471,13.3794706 191.236471,11.7547647 C191.236471,10.1306471 189.914706,8.80888235 188.29,8.80888235 L184.438235,8.80888235 L184.438235,5.21947059 C184.438235,3.37064706 182.934118,1.86652941 181.084706,1.86652941 C179.235294,1.86652941 177.731765,3.37064706 177.731765,5.21947059 L177.731765,8.80888235 L177.47,8.80888235 C175.846471,8.80888235 174.524118,10.1306471 174.524118,11.7547647 C174.524118,13.3794706 175.846471,14.7006471 177.47,14.7006471 L177.731765,14.7006471 L177.731765,27.553 C177.731765,32.7800588 180.334118,35.4300588 185.465294,35.4300588 C186.849412,35.4300588 188.063529,35.2447647 189.176471,34.8641765 C190.351176,34.4612353 191.141176,33.3665294 191.141176,32.1406471 C191.141176,31.3294706 190.795294,30.5541765 190.190588,30.0135882 C189.581765,29.4688824 188.767059,29.2059412 187.947647,29.3000588 M162.032941,23.1741765 C158.55,23.1741765 156.552353,24.5441765 156.552353,26.9306471 L156.552353,27.0265294 C156.552353,29.0759412 158.308235,30.4000588 161.027647,30.4000588 C164.674118,30.4000588 167.321176,28.3165294 167.321176,25.4465294 L167.321176,24.0406471 C166.154706,23.623 164.360588,23.1741765 162.032941,23.1741765 M170.882353,11.4365294 C172.775294,13.2824118 173.74,16.0171176 173.74,19.5582941 L173.74,31.5741765 C173.74,33.2335882 172.57,34.7382941 170.926471,34.9665294 C169.172941,35.2100588 167.633529,34.0565294 167.262941,32.4594706 C165.219412,34.4694706 162.523529,35.5253529 159.4,35.5253529 C154.845294,35.5253529 149.942941,32.9406471 149.942941,27.2659412 L149.942941,27.1700588 C149.942941,21.7882941 154.032941,18.5747647 160.884118,18.5747647 C163.651176,18.5747647 165.642353,19.0006471 167.225294,19.4677059 L167.225294,19.4618235 C167.225294,15.2894706 164.062941,14.4135882 161.410588,14.4135882 C159.691176,14.4135882 158.133529,14.6512353 156.508824,15.1612353 C155.022941,15.6282941 153.451176,14.8288824 152.935882,13.3447647 C152.634706,12.4765294 152.755882,11.5306471 153.284118,10.7477059 C153.652353,10.2018235 154.233529,9.82358824 154.857647,9.613 C157.195294,8.82535294 159.459412,8.47358824 162.176471,8.47358824 C165.984706,8.47358824 168.994118,9.49829412 170.882353,11.4365294 M136.121176,13.9341765 C133.07,13.9341765 130.748235,16.1694706 130.097059,19.6759412 L142.017059,19.6759412 C141.573529,16.8124118 139.827059,13.9341765 136.121176,13.9341765 M148.737059,22.3353529 C148.736471,23.4912353 147.788235,24.4188824 146.625882,24.4188824 L130.155882,24.4188824 C130.876471,27.8282941 133.413529,29.9212353 136.887059,29.9212353 C138.872941,29.9212353 140.464706,29.3953529 142.047059,28.2153529 C143.097647,27.433 144.577647,27.5006471 145.564706,28.3771176 C146.184706,28.9265294 146.528824,29.7165294 146.510588,30.5453529 C146.49,31.3741765 146.110588,32.1477059 145.467059,32.6682941 C143.083529,34.5959412 140.165294,35.5735882 136.791765,35.5735882 C129.009412,35.5735882 123.361176,29.8647647 123.361176,21.9994706 L123.361176,21.4553529 C123.361176,17.9259412 124.794118,14.4765294 127.292353,11.9918235 C129.7,9.59770588 132.855882,8.28241176 136.185294,8.28241176 L136.255882,8.28241176 C144.877647,8.32947059 148.737059,15.3741765 148.737059,22.3353529 M121.835294,9.43594118 C120.799412,8.79888235 119.542353,8.74358824 118.471765,9.28711765 C116.903529,10.083 115.604118,11.3435882 114.591176,13.0465294 L114.591176,12.2024118 C114.591176,10.3406471 113.076471,8.82535294 111.214706,8.82535294 C109.352353,8.82535294 107.837647,10.3406471 107.837647,12.2024118 L107.837647,32.1971176 C107.837647,34.0588824 109.352353,35.5735882 111.214706,35.5735882 C113.076471,35.5735882 114.591176,34.0588824 114.591176,32.1971176 L114.591176,24.9365294 C114.591176,23.1265294 114.857059,21.5271176 115.391176,20.1577059 C116.167647,17.7624118 118.882353,16.5000588 121.023529,15.8635882 C122.531176,15.4153529 123.543529,14.0547647 123.543529,12.4777059 C123.543529,11.2294706 122.904706,10.0924118 121.835294,9.43594118 M105.2,18.7641765 L105.2,28.1988824 C105.2,29.463 104.607059,30.6488824 103.614706,31.3700588 C100.974706,33.2877059 96.6017647,35.5735882 90.7635294,35.5735882 C80.2629412,35.5735882 72.9288235,28.2988824 72.9288235,17.883 L72.9288235,17.7865294 C72.9288235,7.813 80.7205882,5.88235293e-05 90.6682353,5.88235293e-05 C94.9817647,5.88235293e-05 98.2605882,0.854764706 101.297647,2.77123529 C102.08,3.26535294 102.610588,4.07064706 102.752941,4.98064706 C102.893529,5.88064706 102.638235,6.79652941 102.053529,7.49417647 L101.802353,7.793 C100.778235,9.01358824 98.9741176,9.26417647 97.6058824,8.37711765 C95.4652941,6.98947059 93.2517647,6.37064706 90.4282353,6.37064706 C84.59,6.37064706 80.0170588,11.343 80.0170588,17.6912353 L80.0170588,17.7865294 C80.0170588,24.5647647 84.5152941,29.2988824 90.9552941,29.2988824 C93.0035294,29.2988824 95.0223529,28.8594706 96.7935294,28.0288824 C97.8847059,27.5165294 98.5888235,26.3612353 98.5888235,25.0841765 L98.5888235,21.4506471 L93.0617647,21.4506471 C91.3817647,21.4506471 90.02,20.0888824 90.02,18.4088824 C90.02,16.7288824 91.3817647,15.3671176 93.0617647,15.3671176 L101.802353,15.3671176 C103.678824,15.3671176 105.2,16.8877059 105.2,18.7641765" id="Fill-39" fill="#1974D2"></path>
        </g>
    </g>
</svg>